<?xml version="1.0" encoding="utf-8"?>
<!-- Generator: Adobe Illustrator 17.1.0, SVG Export Plug-In . SVG Version: 6.00 Build 0)  -->
<!DOCTYPE svg PUBLIC "-//W3C//DTD SVG 1.1//EN" "http://www.w3.org/Graphics/SVG/1.1/DTD/svg11.dtd">
<svg version="1.1" id="Layer_1" xmlns="http://www.w3.org/2000/svg" xmlns:xlink="http://www.w3.org/1999/xlink" x="0px" y="0px"
	 width="625px" height="549px" viewBox="0 0 625 549" style="enable-background:new 0 0 625 549;" xml:space="preserve">
<style type="text/css">
	.st0{fill:none;stroke:#000000;stroke-miterlimit:10;}
	.st1{font-family:'MyriadPro-Regular';}
	.st2{font-size:22;}
	.st3{fill:none;}
</style>
<rect id="html" x="0.5" y="0.5" class="st0" width="624" height="548"/>
<rect id="page" x="40.5" y="69.5" class="st0" width="545" height="448"/>
<rect id="node" x="107.5" y="142.5" class="st0" width="232" height="324"/>
<g id="region">
	<rect x="76.5" y="115.5" class="st0" width="291" height="375"/>
	<rect x="393.5" y="115.5" class="st0" width="156" height="375"/>
</g>
<rect id="field" x="128.5" y="171.5" class="st0" width="188" height="44"/>
<rect id="block" x="406.5" y="138.5" class="st0" width="126" height="88"/>
<rect id="block_1_" x="406.5" y="251.5" class="st0" width="126" height="88"/>
<rect id="block_2_" x="406.5" y="364.5" class="st0" width="126" height="88"/>
<g id="text">
	<text transform="matrix(1 0 0 1 143 201)" class="st1 st2">Field Text</text>
	<rect x="130" y="246" class="st3" width="185" height="217"/>
	<text transform="matrix(1 0 0 1 130 261.6196)"><tspan x="0" y="0" class="st1 st2">The quick brown </tspan><tspan x="0" y="26.4" class="st1 st2">fox jumped over </tspan><tspan x="0" y="52.8" class="st1 st2">the lazy dogs, who </tspan><tspan x="0" y="79.2" class="st1 st2">were wearing hand</tspan><tspan x="176.9" y="79.2" class="st1 st2">-</tspan><tspan x="0" y="105.6" class="st1 st2">gloves, and eating a </tspan><tspan x="0" y="132" class="st1 st2">zucchini.</tspan></text>
</g>
</svg>
